<?xml version="1.0" encoding="UTF-8"?>
<svg id="Layer_1" data-name="Layer 1" xmlns="http://www.w3.org/2000/svg" viewBox="0 0 109.42 107.14">
  <path d="M0,77.33V31.51c.76-.39,1.25-.88,1.63-.81,15.17,3.06,25.54-4.29,34.5-15.37,4.02-4.97,8.8-9.33,14.55-15.33V107.14c-7.51-7.5-14.58-13.81-20.74-20.91-5.88-6.79-12.39-10.51-21.53-8.97-2.5,.42-5.13,.06-8.41,.06Zm9.33-8.31c15.74-5.96,22.5,6.21,31.87,14.63V23.77c-9.38,9.92-17.01,20.63-31.87,15.63v29.63Z"/>
  <path d="M82.35,53.02c-4.84-4.16-8.97-7.72-14.22-12.23,2.83-2.44,5.05-4.35,8.81-7.59,3.57,4.9,6.93,9.52,10.6,14.56,5.49-5.22,9.57-9.1,14.76-14.03,2.03,2.4,3.93,4.63,7.13,8.42-4.89,3.55-9.52,6.91-14.57,10.58,5.23,5.5,9.11,9.58,13.98,14.71-2.4,2.05-4.63,3.95-8.15,6.96-3.76-4.67-7.32-9.1-11.2-13.93-5.1,4.85-9.18,8.73-13.72,13.04-2.19-1.96-4.23-3.78-6.96-6.22,4.28-4.51,8.29-8.73,13.53-14.26Z"/>
</svg>