<?xml version="1.0" encoding="UTF-8"?>
<svg id="Layer_1" data-name="Layer 1" xmlns="http://www.w3.org/2000/svg" viewBox="0 0 112.11 106.2">
  <path d="M0,76.49V30.75c.63-.4,1.11-.95,1.47-.88,15.47,3.03,26.11-4.42,35.1-15.86,3.82-4.87,8.15-9.35,12.25-14,.61,.42,1.22,.84,1.83,1.27V106.2c-6.78-6.74-13.49-12.34-18.85-19.02-7-8.72-15.27-12.62-26.3-10.72-1.5,.26-3.09,.04-5.5,.04ZM41.64,22.69c-9.7,9.78-17.04,21.19-32.14,15.68v27.47c6.51,1.32,13.02,1.34,18.09,4.05,5.11,2.73,8.8,8.13,14.05,13.28V22.69Z"/>
  <path d="M93.38,98.3c-1.72-2.21-3.46-4.45-5.5-7.07,9.24-10.72,14.83-23.39,14.85-37.9,.02-14.57-5.2-27.41-15.67-39.14,2.26-2.19,4.43-4.3,6.61-6.42,24.69,25.55,24.59,66.78-.28,90.52Z"/>
  <path d="M80.38,84.88c-2.18-2.16-4-3.97-6.14-6.08,12.8-17.1,13.16-34.08,.22-50.97,1.46-1.61,2.62-2.97,3.88-4.24,.69-.69,1.55-1.22,2.28-1.78,17.05,15.76,17.19,45.19-.25,63.07Z"/>
  <path d="M60.81,40.85c2.22-2.26,4.18-4.25,6.15-6.26,10.12,10.82,10.37,23.97,.68,36.89-2.16-2.04-4.27-4.03-6.73-6.36,5.54-8.04,5.56-16.04-.1-24.27Z"/>
</svg>